<svg preserveAspectRatio="none" viewBox="0 0 396 378" fill="none" xmlns="http://www.w3.org/2000/svg">
<path d="M20.5 324L16.5 320V365L28.5 376.5H324L338 363H377L394.5 343.5V283L389 294V343.5L373 360.5H317L304 374H39L20.5 356V324Z" fill="#F8F207"/>
<path d="M27 0.5H26.7873L26.6398 0.653179L0.63984 27.6532L0.5 27.7984V28V127.5V127.707L0.646447 127.854L16 143.207V365V365.213L16.154 365.361L28.154 376.861L28.2991 377H28.5H324H324.202L324.347 376.86L338.202 363.5H377H377.223L377.372 363.334L394.872 343.834L395 343.691V343.5V181.5V181.354L394.922 181.232L377.5 153.854V34V33.801L377.363 33.6564L359.863 15.1564L359.715 15H359.5H330.212L316.36 0.652703L316.212 0.5H316H27Z" stroke="#F8F207"/>
<path d="M19 139V154.5L16.5 156.583V143L1 127.5V28L27 1H316L330 15.5H359.5L377 34V78.5L374.5 71.5V48L371 42.5V34.5L355 17H317L304.5 3.5H62.5L57 10H23.5L4.5 29.5V97.5L9 102.5V129.5L19 139Z" fill="#F8F207"/>
</svg>
