<svg preserveAspectRatio="none" viewBox="0 0 650 682" fill="none" xmlns="http://www.w3.org/2000/svg">
<path d="M649.5 45.8682V45.6555L649.347 45.508L602.753 0.63984L602.608 0.5H602.406L430.699 0.5H430.492L430.346 0.646447L403.744 27.2483L20.8455 27.2483H20.6321L20.4845 27.4024L0.638977 48.1108L0.5 48.2558V48.4567V558.401V558.603L0.640076 558.748L23.7969 582.762V649.863V650.086L23.963 650.235L57.6141 680.435L57.7566 680.563H57.9481H337.511H337.657L337.78 680.484L385.114 650.363H592.052H592.251L592.396 650.226L624.321 620.026L624.477 619.878V619.663V568.967L649.347 544.955L649.5 544.807V544.595V45.8682Z" fill="black" stroke="#F8F207"/>
<path d="M91.5989 35.9028L98.5017 29L20.8452 29L0.99968 49.7084L0.99968 559.653L24.2966 583.812V651.115L57.9477 681.314H162.353L143.37 671.823H57.9477L28.6109 644.212V547.573L5.31392 525.139L5.31392 67.8282L36.3765 35.9028H91.5989Z" fill="#F8F207"/>
<path d="M410.854 34.0626H384.105L380.51 29.7483L403.951 29.7483L430.699 3L602.406 3L649 47.8682V546.595L623.977 570.755V621.663L592.052 651.863H515.258L527.338 647.549H567.892L577.383 641.509H591.189L621.389 613.897V548.321L644.686 526.75V109.13L633.469 99.6391V41.8282L599.818 9.03995L482.47 9.03995L473.842 16.8056L427.248 16.8056L410.854 34.0626Z" fill="#F8F207"/>
</svg>
